<svg width="84" height="84" fill="none" xmlns="http://www.w3.org/2000/svg"><g filter="url(#filter0_b_44_207)"><path d="M32.073 2.751a20 20 0 0119.967 0L71.097 13.73a20 20 0 0110.016 17.33v21.88a20 20 0 01-10.016 17.33L52.04 81.25a20 20 0 01-19.967 0L13.016 70.27A20 20 0 013 52.94V31.06a20 20 0 0110.016-17.33L32.073 2.75z" fill="#227A35" fill-opacity=".2"/></g><g filter="url(#filter1_d_44_207)" fill="#4DC167"><path d="M44.755 59a1.088 1.088 0 01-1.088-1.088c0-6.292 1.467-10.213 5.412-14.47 1.326-1.43 3.048-1.333 4.066-.497.985.81 1.426 2.398.36 3.866l-2.1 2.852a1.089 1.089 0 01-1.753-1.29l2.095-2.845c.258-.356.266-.695.016-.9-.224-.185-.627-.204-1.089.294-3.523 3.8-4.832 7.321-4.832 12.99A1.086 1.086 0 0144.755 59z"/><path d="M50.748 59a1.088 1.088 0 01-1.088-1.088c0-3.192 1.116-5.139 3.042-7.421 3.043-3.603 4.122-6.266 4.122-10.173 0-.754-.346-1.092-.69-1.092-.412 0-.678.435-.678 1.11 0 .655-.095 1.539-.099 1.576a1.083 1.083 0 01-1.197.965 1.088 1.088 0 01-.966-1.197c.001-.009.086-.806.086-1.343 0-2.157 1.436-3.287 2.855-3.287 1.424 0 2.865 1.123 2.865 3.268 0 4.439-1.256 7.576-4.635 11.578-1.677 1.986-2.529 3.462-2.529 6.017 0 .6-.487 1.087-1.088 1.087zm-11.504 0a1.088 1.088 0 01-1.088-1.088c0-5.67-1.31-9.19-4.832-12.99-.46-.498-.864-.48-1.088-.295-.25.206-.242.544.02.906l2.09 2.84a1.088 1.088 0 11-1.752 1.29l-2.095-2.846c-1.07-1.474-.63-3.062.356-3.872 1.017-.836 2.74-.933 4.064.497 3.946 4.257 5.413 8.178 5.413 14.47 0 .601-.487 1.088-1.088 1.088z"/><path d="M33.251 59a1.087 1.087 0 01-1.088-1.088c0-2.555-.851-4.031-2.528-6.017-3.38-4-4.635-7.138-4.635-11.577 0-2.145 1.44-3.268 2.865-3.268 1.418 0 2.854 1.13 2.854 3.287 0 .537.085 1.335.086 1.343a1.087 1.087 0 01-.965 1.197 1.083 1.083 0 01-1.198-.965 17.855 17.855 0 01-.098-1.576c0-.675-.267-1.11-.68-1.11-.342 0-.688.337-.688 1.092 0 3.908 1.079 6.57 4.122 10.173 1.926 2.281 3.042 4.227 3.042 7.421 0 .601-.488 1.088-1.089 1.088zm8.607-19.111a4.292 4.292 0 01-4.074-2.782 1.088 1.088 0 112.046-.74c.253.698 1.001 1.389 2.13 1.343.584-.034 1.105.446 1.128 1.047a1.09 1.09 0 01-1.047 1.128 3.754 3.754 0 01-.183.004z"/><path d="M42 48.667a1.088 1.088 0 01-1.088-1.088V32.875a1.088 1.088 0 012.176 0V47.58A1.09 1.09 0 0142 48.668z"/><path d="M42 37.642a1.088 1.088 0 110-2.176c.908 0 1.65-.272 2.09-.764.295-.33.431-.737.385-1.144a1.089 1.089 0 012.163-.244 3.663 3.663 0 01-.926 2.838c-.859.961-2.177 1.49-3.711 1.49z"/><path d="M37.913 43.519a4.147 4.147 0 01-2.288-.692c-1.195-.794-1.837-2.13-1.773-3.642-1.61-2.027-1.976-4.592-.94-6.8.861-1.833 2.517-3.037 4.466-3.31.139-1.213.672-2.05 1.154-2.572C39.395 25.562 40.692 25 42 25c1.307 0 2.604.562 3.47 1.503a4.5 4.5 0 011.152 2.572c1.95.273 3.605 1.477 4.465 3.31 1.036 2.208.67 4.773-.941 6.8.065 1.519-.582 2.859-1.785 3.65-1.32.868-3.015.913-4.317.114a1.087 1.087 0 111.139-1.855c.577.355 1.373.324 1.983-.077.63-.416.908-1.138.779-2.032a1.09 1.09 0 01.27-.884c1.528-1.694 1.468-3.585.902-4.792-.65-1.387-1.963-2.177-3.522-2.114a1.088 1.088 0 01-1.129-1.179c.071-.843-.13-1.53-.6-2.041a2.57 2.57 0 00-1.867-.8c-.709 0-1.406.3-1.866.8-.47.51-.672 1.197-.6 2.041a1.09 1.09 0 01-1.129 1.18c-1.554-.067-2.87.725-3.522 2.114-.566 1.206-.627 3.098.902 4.79.216.24.315.565.27.885-.13.891.146 1.611.773 2.028.606.401 1.402.437 1.98.088a1.087 1.087 0 111.124 1.864 3.897 3.897 0 01-2.018.554z"/></g><defs><filter id="filter0_b_44_207" x="-7" y="-9.919" width="98.113" height="103.837" filterUnits="userSpaceOnUse" color-interpolation-filters="sRGB"><feFlood flood-opacity="0" result="BackgroundImageFix"/><feGaussianBlur in="BackgroundImageFix" stdDeviation="5"/><feComposite in2="SourceAlpha" operator="in" result="effect1_backgroundBlur_44_207"/><feBlend in="SourceGraphic" in2="effect1_backgroundBlur_44_207" result="shape"/></filter><filter id="filter1_d_44_207" x="0" y="0" width="84" height="84" filterUnits="userSpaceOnUse" color-interpolation-filters="sRGB"><feFlood flood-opacity="0" result="BackgroundImageFix"/><feColorMatrix in="SourceAlpha" values="0 0 0 0 0 0 0 0 0 0 0 0 0 0 0 0 0 0 127 0" result="hardAlpha"/><feOffset/><feGaussianBlur stdDeviation="12.5"/><feComposite in2="hardAlpha" operator="out"/><feColorMatrix values="0 0 0 0 0.402865 0 0 0 0 0.920833 0 0 0 0 0.516818 0 0 0 0.5 0"/><feBlend in2="BackgroundImageFix" result="effect1_dropShadow_44_207"/><feBlend in="SourceGraphic" in2="effect1_dropShadow_44_207" result="shape"/></filter></defs></svg>